<svg xmlns="http://www.w3.org/2000/svg" viewBox="0 0 1200 630" width="1200" height="630" role="img" aria-label="Smartphone mit Arztgespräch, E-Rezept und Paket als Ablauf von der Beratung bis zur Lieferung">
<rect width="1200" height="630" fill="#e6efe8"/>
<rect x="28" y="28" width="1144" height="574" rx="10" fill="none" stroke="#cfd8d2" stroke-width="2"/>
<circle cx="80" cy="84" r="7" fill="#b8892e"/>
<text x="100" y="91" font-family="IBM Plex Mono, Menlo, Consolas, monospace" font-size="19" letter-spacing="3" fill="#566159">CANNANOVA · WISSEN</text>
<g transform="translate(440,150) scale(1.667)" fill="none" stroke="#1f4a33" stroke-width="2.70" stroke-linecap="round" stroke-linejoin="round"><rect x="34" y="10" width="52" height="100" rx="10"/>
<path d="M50 18h20"/><circle cx="60" cy="50" r="12"/><path d="M40 86c3-14 11-20 20-20s17 6 20 20"/>
<path d="M14 40c-6 8-6 22 0 30M22 46c-3 5-3 13 0 18" opacity=".6"/><path d="M106 40c6 8 6 22 0 30M98 46c3 5 3 13 0 18" opacity=".6"/></g><path d="M650 250H690" stroke="#cfd8d2" stroke-width="4" stroke-dasharray="2 12" stroke-linecap="round"/><path fill="none" d="M680 240l10 10-10 10" stroke="#566159" stroke-width="4" stroke-linecap="round" stroke-linejoin="round"/><g transform="translate(700,150) scale(1.667)" fill="none" stroke="#1f4a33" stroke-width="2.70" stroke-linecap="round" stroke-linejoin="round"><path d="M26 10h48l20 20v80H26z"/><path d="M74 10v20h20"/>
<path d="M38 44h18M38 54h30" opacity=".6"/>
<rect x="38" y="68" width="30" height="30" rx="2"/><path d="M44 74h6v6h-6zM56 74h6v6h-6zM44 86h6v6h-6zM58 88h4v4h-4z" fill="#1f4a33" stroke="none"/>
<circle cx="84" cy="86" r="5" fill="#b8892e" stroke="none"/></g><path d="M910 250H930" stroke="#cfd8d2" stroke-width="4" stroke-dasharray="2 12" stroke-linecap="round"/><path fill="none" d="M920 240l10 10-10 10" stroke="#566159" stroke-width="4" stroke-linecap="round" stroke-linejoin="round"/><g transform="translate(940,150) scale(1.667)" fill="none" stroke="#1f4a33" stroke-width="2.70" stroke-linecap="round" stroke-linejoin="round"><path d="M16 40l44-22 44 22v50l-44 22-44-22z"/><path d="M16 40l44 22 44-22M60 62v50"/>
<path d="M38 29l44 22v16" opacity=".6"/></g><g font-family="IBM Plex Mono, Menlo, Consolas, monospace" font-size="18" fill="#566159" text-anchor="middle"><text x="540" y="390">Arztgespräch</text><text x="800" y="390">E-Rezept</text><text x="1040" y="390">Lieferung</text></g>
<text x="72" y="508" font-family="IBM Plex Mono, Menlo, Consolas, monospace" font-size="20" letter-spacing="3" fill="#566159">REZEPT &amp; ABLAUF</text>
<text x="72" y="556" font-family="Hanken Grotesk, Helvetica Neue, Arial, sans-serif" font-size="38" font-weight="600" fill="#1f4a33">Telemedizin-Rezept in einem Ablauf</text>
</svg>
