<svg xmlns="http://www.w3.org/2000/svg" viewBox="0 0 1200 630" width="1200" height="630" role="img" aria-label="Stilisierte Ringstrukturen der Moleküle THC und CBD">
<rect width="1200" height="630" fill="#e6efe8"/>
<rect x="28" y="28" width="1144" height="574" rx="10" fill="none" stroke="#cfd8d2" stroke-width="2"/>
<circle cx="80" cy="84" r="7" fill="#b8892e"/>
<text x="100" y="91" font-family="IBM Plex Mono, Menlo, Consolas, monospace" font-size="19" letter-spacing="3" fill="#566159">CANNANOVA · WISSEN</text>
<g stroke="#1f4a33" stroke-width="5" stroke-linecap="round" stroke-linejoin="round" fill="#ffffff"><polygon points="679.8,283.0 640.0,306.0 600.2,283.0 600.2,237.0 640.0,214.0 679.8,237.0"/><polygon points="759.5,283.0 719.7,306.0 679.8,283.0 679.8,237.0 719.7,214.0 759.5,237.0"/><polygon points="799.3,352.0 759.5,375.0 719.7,352.0 719.7,306.0 759.5,283.0 799.3,306.0"/></g><g stroke="#1f4a33" stroke-width="5" stroke-linecap="round" stroke-linejoin="round" fill="#e6efe8"><polygon points="969.8,273.0 930.0,296.0 890.2,273.0 890.2,227.0 930.0,204.0 969.8,227.0"/><polygon points="1089.3,342.0 1049.5,365.0 1009.7,342.0 1009.7,296.0 1049.5,273.0 1089.3,296.0"/><path d="M970 273L1010 294"/></g><path d="M600 283l-34 20M799 352l30 18M1089 342l34 20" fill="none" stroke="#1f4a33" stroke-width="5" stroke-linecap="round" stroke-linejoin="round"/><circle cx="680" cy="237" r="9" fill="#b8892e"/><g font-family="IBM Plex Mono, Menlo, Consolas, monospace" font-size="28" font-weight="500" text-anchor="middle"><text x="720" y="430" fill="#1f4a33">THC</text><text x="1000" y="430" fill="#2f6a49">CBD</text></g><line x1="860" y1="150" x2="860" y2="440" stroke="#cfd8d2" stroke-width="3"/>
<text x="72" y="508" font-family="IBM Plex Mono, Menlo, Consolas, monospace" font-size="20" letter-spacing="3" fill="#566159">GRUNDLAGEN</text>
<text x="72" y="556" font-family="Hanken Grotesk, Helvetica Neue, Arial, sans-serif" font-size="38" font-weight="600" fill="#1f4a33">THC und CBD im Vergleich</text>
</svg>
